<svg xmlns="http://www.w3.org/2000/svg" width="96" height="96" viewBox="0 0 96 96">
	<title>カプセログ</title>
	<defs>
		<linearGradient id="bg" x1="0" y1="0" x2="0" y2="1">
			<stop offset="0" stop-color="#5f5268" /><stop offset="1" stop-color="#3e3345" />
		</linearGradient>
		<linearGradient id="paper" x1="0" y1="0" x2="0" y2="1">
			<stop offset="0" stop-color="#ffffff" /><stop offset="1" stop-color="#f2eae0" />
		</linearGradient>
		<linearGradient id="head" x1="0" y1="0" x2="0" y2="1">
			<stop offset="0" stop-color="#7fd0c0" /><stop offset="1" stop-color="#52ad9c" />
		</linearGradient>
		<linearGradient id="cap" x1="0" y1="0" x2="0" y2="1">
			<stop offset="0" stop-color="#fa8d82" /><stop offset="1" stop-color="#e2594d" />
		</linearGradient>
		<linearGradient id="cup" x1="0" y1="0" x2="0" y2="1">
			<stop offset="0" stop-color="#ffffff" /><stop offset="1" stop-color="#ebe0d3" />
		</linearGradient>
	</defs>
	<rect width="96" height="96" rx="24" fill="url(#bg)" />
	<rect width="96" height="96" rx="24" fill="none" stroke="#ffffff" stroke-opacity="0.12" stroke-width="1.5" />
	<rect x="19" y="27" width="58" height="52" rx="12" fill="#000000" opacity="0.28" />
	<rect x="18" y="25" width="60" height="52" rx="12" fill="url(#paper)" />
	<path d="M30 25 h36 a12 12 0 0 1 12 12 v1 h-60 v-1 a12 12 0 0 1 12 -12 z" fill="url(#head)" />
	<rect x="18" y="38" width="60" height="2" fill="#000000" opacity="0.08" />
	<g transform="rotate(-10 48 60)">
		<ellipse cx="48" cy="74" rx="19" ry="3" fill="#8a6a55" opacity="0.22" />
		<path d="M30 60 h36 v3 a18 18 0 0 1 -36 0 z" fill="url(#cup)" />
		<path d="M30 60 a18 18 0 0 1 36 0 z" fill="url(#cap)" />
		<path d="M36 53 a13 13 0 0 1 11 -6 a18 18 0 0 0 -17 13 z" fill="#ffffff" opacity="0.38" />
		<rect x="30" y="58.6" width="36" height="2.8" fill="#3c3143" opacity="0.16" />
	</g>
</svg>
